<?xml version="1.0" encoding="UTF-8" standalone="no"?>
<!-- Uploaded to: SVG Repo, www.svgrepo.com, Generator: SVG Repo Mixer Tools -->

<svg
   height="800px"
   width="800px"
   version="1.1"
   id="Layer_1"
   viewBox="0 0 512 512"
   xml:space="preserve"
   sodipodi:docname="cucumber_dead.svg"
   inkscape:version="1.1.1 (3bf5ae0d25, 2021-09-20)"
   xmlns:inkscape="http://www.inkscape.org/namespaces/inkscape"
   xmlns:sodipodi="http://sodipodi.sourceforge.net/DTD/sodipodi-0.dtd"
   xmlns="http://www.w3.org/2000/svg"
   xmlns:svg="http://www.w3.org/2000/svg"><defs
   id="defs794" /><sodipodi:namedview
   id="namedview792"
   pagecolor="#ffffff"
   bordercolor="#666666"
   borderopacity="1.0"
   inkscape:pageshadow="2"
   inkscape:pageopacity="0.0"
   inkscape:pagecheckerboard="0"
   showgrid="false"
   inkscape:zoom="1.09125"
   inkscape:cx="400"
   inkscape:cy="399.54181"
   inkscape:window-width="3682"
   inkscape:window-height="2126"
   inkscape:window-x="3987"
   inkscape:window-y="-11"
   inkscape:window-maximized="1"
   inkscape:current-layer="Layer_1" />
<path
   style="fill:#917c6f;stroke-width:0.512964"
   d="m 290.28877,248.37571 c 0,120.3755 -17.05831,140.46278 -38.10091,140.46278 -21.0426,0 -38.10092,-20.08673 -38.10092,-140.46278 0,-120.37604 17.05785,-140.46277 38.10092,-140.46277 21.04308,0 38.10091,20.08673 38.10091,140.46277 z"
   id="path757" />
<path
   style="fill:#917c6f;stroke-width:0.512964"
   d="m 273.35514,350.08996 c -21.04307,0 -38.10092,-20.08727 -38.10092,-140.46277 0,-35.02077 1.44878,-61.52488 4.01689,-81.52931 0.88432,-6.88816 -7.23097,-10.07436 -10.28824,-4.05586 -9.05764,17.82999 -14.89593,53.92014 -14.89593,124.33369 0,120.3755 17.05832,140.46278 38.10092,140.46278 11.05266,0 20.99991,-5.57901 27.95752,-28.29557 1.59649,-5.21304 -1.85977,-10.46887 -6.68713,-10.45296 -0.0345,0 -0.0686,0 -0.10315,0 z"
   id="path759" />
<path
   style="fill:#502d16;stroke-width:0.512964"
   d="m 231.31023,287.12423 c -2.29858,0 -4.18377,-2.10035 -4.23365,-4.73952 -0.0575,-3.15492 -0.10741,-6.39544 -0.14866,-9.72539 -0.0336,-2.67703 1.83579,-4.8767 4.1713,-4.91455 2.20795,0.13716 4.26242,2.10035 4.29551,4.77243 0.0412,3.31131 0.0911,6.53207 0.14867,9.65846 0.0499,2.67703 -1.80654,4.89096 -4.14253,4.94748 -0.033,0.001 -0.0619,0.001 -0.0907,0.001 z"
   id="path761" />
<g
   id="g771"
   transform="matrix(0.47957055,0,0,0.5486827,129.41779,107.91294)"
   style="fill:#502d16">
	<path
   style="fill:#502d16"
   d="m 299.534,326.63 c -0.061,0 -0.12,0 -0.19,0 -4.871,-0.104 -8.741,-4.138 -8.638,-9.017 0.12,-5.698 0.224,-11.569 0.31,-17.603 0.061,-4.871 4.328,-8.509 8.957,-8.698 4.871,0.07 8.767,4.077 8.698,8.957 -0.086,6.069 -0.19,11.975 -0.31,17.725 -0.103,4.808 -4.033,8.636 -8.827,8.636 z"
   id="path763" />
	<path
   style="fill:#502d16"
   d="m 256,229.517 c -4.879,0 -8.828,-3.948 -8.828,-8.828 v -8.828 c 0,-4.879 3.948,-8.828 8.828,-8.828 4.879,0 8.828,3.948 8.828,8.828 v 8.828 c 0,4.88 -3.949,8.828 -8.828,8.828 z"
   id="path765" />
	<path
   style="fill:#502d16"
   d="m 291.31,132.414 h -0.086 c -4.879,0 -8.828,-3.948 -8.828,-8.828 0,-4.879 3.948,-8.828 8.828,-8.828 4.88,0 8.871,3.948 8.871,8.828 0,4.88 -3.905,8.828 -8.785,8.828 z"
   id="path767" />
	<path
   style="fill:#502d16"
   d="m 238.345,167.724 h -0.086 c -4.879,0 -8.828,-3.948 -8.828,-8.828 0,-4.879 3.948,-8.828 8.828,-8.828 4.879,0 8.871,3.948 8.871,8.828 -0.001,4.88 -3.906,8.828 -8.785,8.828 z"
   id="path769" />
</g>
<path
   style="fill:#502d16;stroke-width:0.512964"
   d="m 226.82864,233.84495 h -0.0412 c -2.33982,0 -4.23365,-2.1662 -4.23365,-4.84378 0,-2.67756 1.89335,-4.84377 4.23365,-4.84377 2.34031,0 4.25428,2.16621 4.25428,4.84377 0,2.67758 -1.87321,4.84378 -4.21304,4.84378 z"
   id="path773" />
<g
   id="g787"
   transform="matrix(0.47957055,0,0,0.5486827,129.41779,107.91294)"
   style="fill:#502d16">
	<path
   style="fill:#502d16"
   d="m 256,114.759 h -0.086 c -4.879,0 -8.828,-3.948 -8.828,-8.828 0,-4.879 3.948,-8.828 8.828,-8.828 4.88,0 8.871,3.948 8.871,8.828 0,4.879 -3.906,8.828 -8.785,8.828 z"
   id="path775" />
	<path
   style="fill:#502d16"
   d="m 282.569,88.276 h -0.086 c -4.879,0 -8.828,-3.948 -8.828,-8.828 0,-4.879 3.948,-8.828 8.828,-8.828 4.88,0 8.871,3.948 8.871,8.828 -10e-4,4.88 -3.906,8.828 -8.785,8.828 z"
   id="path777" />
	<path
   style="fill:#502d16"
   d="m 282.569,176.552 c -4.879,0 -8.871,-3.948 -8.871,-8.828 0,-4.88 3.905,-8.828 8.785,-8.828 h 0.086 c 4.879,0 8.828,3.948 8.828,8.828 0,4.88 -3.949,8.828 -8.828,8.828 z"
   id="path779" />
	<path
   style="fill:#502d16"
   d="m 300.224,247.172 c -4.879,0 -8.871,-3.948 -8.871,-8.828 0,-4.879 3.905,-8.828 8.785,-8.828 h 0.086 c 4.879,0 8.828,3.948 8.828,8.828 0,4.88 -3.949,8.828 -8.828,8.828 z"
   id="path781" />
	<path
   style="fill:#502d16"
   d="m 247.172,70.621 h -0.086 c -4.879,0 -8.828,-3.948 -8.828,-8.828 0,-4.88 3.948,-8.828 8.828,-8.828 4.879,0 8.871,3.948 8.871,8.828 0,4.88 -3.905,8.828 -8.785,8.828 z"
   id="path783" />
	<path
   style="fill:#502d16"
   d="m 256,512 c 11.379,0 22.188,-2.507 31.975,-9.98 9.789,-24.75 16.408,-69.715 19.328,-148.589 0.181,-4.871 -3.62,-8.966 -8.491,-9.146 -4.905,-0.319 -8.974,3.62 -9.146,8.491 -3.243,87.551 -11.593,139.217 -24.836,154.393 V 264.828 c 0,-4.879 -3.948,-8.828 -8.828,-8.828 -4.879,0 -8.828,3.948 -8.828,8.828 V 507.17 c -13.242,-15.177 -21.593,-66.842 -24.836,-154.393 -0.181,-4.871 -4.285,-8.767 -9.146,-8.491 -4.871,0.181 -8.672,4.276 -8.491,9.146 2.92,78.874 9.539,123.839 19.328,148.589 9.783,7.471 20.592,9.979 31.971,9.979 z"
   id="path785" />
</g>
<path
   style="fill:#502d16;stroke-width:0.512964"
   d="m 252.18786,388.83849 c 5.45799,0 10.64502,-1.37281 15.33714,-5.48573 2.5518,-7.38637 4.65423,-18.061 6.26607,-33.2189 -0.11365,-0.005 -0.21772,-0.0444 -0.33282,-0.0444 -0.0345,0 -0.0686,0 -0.10315,0 -2.74026,0 -5.41051,-0.3528 -7.98629,-1.21149 -2.10292,19.75861 -5.08968,32.25156 -8.94735,37.30932 v -43.09902 c -3.08268,-3.20048 -5.92844,-7.71942 -8.46682,-13.98812 v 57.08714 c -6.35046,-8.32735 -10.35536,-36.67504 -11.91061,-84.71276 -0.0868,-2.67264 -2.05496,-4.81031 -4.38615,-4.65887 -2.33599,0.0993 -4.15884,2.34617 -4.07203,5.01825 1.40034,43.2768 4.57462,67.94832 9.26913,81.52822 4.69212,4.1003 9.8758,5.4764 15.33284,5.4764 z"
   id="path789" />
</svg>
