<?xml version="1.0" encoding="UTF-8" standalone="no"?>
<!-- Uploaded to: SVG Repo, www.svgrepo.com, Generator: SVG Repo Mixer Tools -->

<svg
   height="800px"
   width="800px"
   version="1.1"
   id="Layer_1"
   viewBox="0 0 512 512"
   xml:space="preserve"
   sodipodi:docname="cucumber.svg"
   inkscape:version="1.1.1 (3bf5ae0d25, 2021-09-20)"
   xmlns:inkscape="http://www.inkscape.org/namespaces/inkscape"
   xmlns:sodipodi="http://sodipodi.sourceforge.net/DTD/sodipodi-0.dtd"
   xmlns="http://www.w3.org/2000/svg"
   xmlns:svg="http://www.w3.org/2000/svg"><defs
   id="defs794" /><sodipodi:namedview
   id="namedview792"
   pagecolor="#ffffff"
   bordercolor="#666666"
   borderopacity="1.0"
   inkscape:pageshadow="2"
   inkscape:pageopacity="0.0"
   inkscape:pagecheckerboard="0"
   showgrid="false"
   inkscape:zoom="1.09125"
   inkscape:cx="400"
   inkscape:cy="399.54181"
   inkscape:window-width="3682"
   inkscape:window-height="2126"
   inkscape:window-x="3987"
   inkscape:window-y="-11"
   inkscape:window-maximized="1"
   inkscape:current-layer="Layer_1" />
<path
   style="fill:#99ff55;stroke-width:0.611026"
   d="m 297.91306,248.96219 c 0,132.94079 -21.91599,155.12486 -48.95085,155.12486 -27.03487,0 -48.95087,-22.18346 -48.95087,-155.12486 0,-132.94139 21.91539,-155.124849 48.95087,-155.124849 27.03548,0 48.95085,22.183459 48.95085,155.124849 z"
   id="path757" />
<path
   style="fill:#99ff55;stroke-width:0.611026"
   d="m 276.15727,361.29379 c -27.03548,0 -48.95087,-22.18406 -48.95087,-155.12484 0,-38.67639 1.86135,-67.94711 5.16077,-90.03968 1.13616,-7.60718 -9.29011,-11.12597 -13.218,-4.47924 -11.63698,19.69117 -19.13783,59.54856 -19.13783,137.31216 0,132.94079 21.916,155.12486 48.95087,155.12486 14.20011,0 26.98002,-6.16137 35.91894,-31.24918 2.05112,-5.75719 -2.38937,-11.56165 -8.59141,-11.54408 -0.0444,0 -0.0882,0 -0.13253,0 z"
   id="path759" />
<path
   style="fill:#447821;stroke-width:0.611026"
   d="m 222.13929,291.75544 c -2.95314,0 -5.37518,-2.31959 -5.43927,-5.23425 -0.0739,-3.48424 -0.138,-7.06302 -0.19099,-10.74057 -0.0431,-2.95647 2.35856,-5.38575 5.35916,-5.42755 2.8367,0.15148 5.47622,2.3196 5.51873,5.2706 0.053,3.65695 0.11706,7.21392 0.19102,10.66665 0.0641,2.95647 -2.32099,5.4015 -5.3222,5.46392 -0.0424,0.001 -0.0795,0.001 -0.11651,0.001 z"
   id="path761" />
<g
   id="g771"
   transform="matrix(0.61613716,0,0,0.60595646,91.231085,93.837341)"
   style="fill:#447821">
	<path
   style="fill:#447821"
   d="m 299.534,326.63 c -0.061,0 -0.12,0 -0.19,0 -4.871,-0.104 -8.741,-4.138 -8.638,-9.017 0.12,-5.698 0.224,-11.569 0.31,-17.603 0.061,-4.871 4.328,-8.509 8.957,-8.698 4.871,0.07 8.767,4.077 8.698,8.957 -0.086,6.069 -0.19,11.975 -0.31,17.725 -0.103,4.808 -4.033,8.636 -8.827,8.636 z"
   id="path763" />
	<path
   style="fill:#447821"
   d="m 256,229.517 c -4.879,0 -8.828,-3.948 -8.828,-8.828 v -8.828 c 0,-4.879 3.948,-8.828 8.828,-8.828 4.879,0 8.828,3.948 8.828,8.828 v 8.828 c 0,4.88 -3.949,8.828 -8.828,8.828 z"
   id="path765" />
	<path
   style="fill:#447821"
   d="m 291.31,132.414 h -0.086 c -4.879,0 -8.828,-3.948 -8.828,-8.828 0,-4.879 3.948,-8.828 8.828,-8.828 4.88,0 8.871,3.948 8.871,8.828 0,4.88 -3.905,8.828 -8.785,8.828 z"
   id="path767" />
	<path
   style="fill:#447821"
   d="m 238.345,167.724 h -0.086 c -4.879,0 -8.828,-3.948 -8.828,-8.828 0,-4.879 3.948,-8.828 8.828,-8.828 4.879,0 8.871,3.948 8.871,8.828 -0.001,4.88 -3.906,8.828 -8.785,8.828 z"
   id="path769" />
</g>
<path
   style="fill:#447821;stroke-width:0.611026"
   d="m 216.38148,232.91465 h -0.053 c -3.00613,0 -5.43926,-2.39232 -5.43926,-5.34939 0,-2.95706 2.43251,-5.34938 5.43926,-5.34938 3.00675,0 5.46576,2.39232 5.46576,5.34938 0,2.95707 -2.40664,5.34939 -5.41278,5.34939 z"
   id="path773" />
<g
   id="g787"
   transform="matrix(0.61613716,0,0,0.60595646,91.231085,93.837341)"
   style="fill:#447821">
	<path
   style="fill:#447821"
   d="m 256,114.759 h -0.086 c -4.879,0 -8.828,-3.948 -8.828,-8.828 0,-4.879 3.948,-8.828 8.828,-8.828 4.88,0 8.871,3.948 8.871,8.828 0,4.879 -3.906,8.828 -8.785,8.828 z"
   id="path775" />
	<path
   style="fill:#447821"
   d="m 282.569,88.276 h -0.086 c -4.879,0 -8.828,-3.948 -8.828,-8.828 0,-4.879 3.948,-8.828 8.828,-8.828 4.88,0 8.871,3.948 8.871,8.828 -10e-4,4.88 -3.906,8.828 -8.785,8.828 z"
   id="path777" />
	<path
   style="fill:#447821"
   d="m 282.569,176.552 c -4.879,0 -8.871,-3.948 -8.871,-8.828 0,-4.88 3.905,-8.828 8.785,-8.828 h 0.086 c 4.879,0 8.828,3.948 8.828,8.828 0,4.88 -3.949,8.828 -8.828,8.828 z"
   id="path779" />
	<path
   style="fill:#447821"
   d="m 300.224,247.172 c -4.879,0 -8.871,-3.948 -8.871,-8.828 0,-4.879 3.905,-8.828 8.785,-8.828 h 0.086 c 4.879,0 8.828,3.948 8.828,8.828 0,4.88 -3.949,8.828 -8.828,8.828 z"
   id="path781" />
	<path
   style="fill:#447821"
   d="m 247.172,70.621 h -0.086 c -4.879,0 -8.828,-3.948 -8.828,-8.828 0,-4.88 3.948,-8.828 8.828,-8.828 4.879,0 8.871,3.948 8.871,8.828 0,4.88 -3.905,8.828 -8.785,8.828 z"
   id="path783" />
	<path
   style="fill:#447821"
   d="m 256,512 c 11.379,0 22.188,-2.507 31.975,-9.98 9.789,-24.75 16.408,-69.715 19.328,-148.589 0.181,-4.871 -3.62,-8.966 -8.491,-9.146 -4.905,-0.319 -8.974,3.62 -9.146,8.491 -3.243,87.551 -11.593,139.217 -24.836,154.393 V 264.828 c 0,-4.879 -3.948,-8.828 -8.828,-8.828 -4.879,0 -8.828,3.948 -8.828,8.828 V 507.17 c -13.242,-15.177 -21.593,-66.842 -24.836,-154.393 -0.181,-4.871 -4.285,-8.767 -9.146,-8.491 -4.871,0.181 -8.672,4.276 -8.491,9.146 2.92,78.874 9.539,123.839 19.328,148.589 9.783,7.471 20.592,9.979 31.971,9.979 z"
   id="path785" />
</g>
<path
   style="fill:#447821;stroke-width:0.611026"
   d="m 248.96221,404.08705 c 7.01225,0 13.67639,-1.51611 19.70468,-6.05835 3.27847,-8.15739 5.9796,-19.94628 8.05045,-36.68643 -0.14603,-0.006 -0.27973,-0.049 -0.4276,-0.049 -0.0444,0 -0.0882,0 -0.13253,0 -3.5206,0 -6.95126,-0.38963 -10.26053,-1.33795 -2.70177,21.82109 -6.53906,35.61811 -11.49528,41.20382 v -47.59788 c -3.96052,-3.53455 -7.61667,-8.5252 -10.87789,-15.44825 v 63.04613 c -8.15889,-9.1966 -13.30425,-40.50334 -15.30239,-93.55543 -0.11158,-2.95162 -2.64014,-5.31243 -5.63519,-5.14518 -3.00121,0.10965 -5.34314,2.59107 -5.23162,5.54207 1.79912,47.79421 5.87734,75.04105 11.9087,90.03848 6.02829,4.52831 12.68811,6.04805 19.69914,6.04805 z"
   id="path789" />
</svg>
