<?xml version="1.0" encoding="UTF-8" standalone="no"?>
<!-- Uploaded to: SVG Repo, www.svgrepo.com, Generator: SVG Repo Mixer Tools -->

<svg
   width="800px"
   height="800px"
   viewBox="0 0 36 36"
   aria-hidden="true"
   role="img"
   class="iconify iconify--twemoji"
   preserveAspectRatio="xMidYMid meet"
   version="1.1"
   id="svg12"
   sodipodi:docname="onion_dead.svg"
   inkscape:version="1.1.1 (3bf5ae0d25, 2021-09-20)"
   xmlns:inkscape="http://www.inkscape.org/namespaces/inkscape"
   xmlns:sodipodi="http://sodipodi.sourceforge.net/DTD/sodipodi-0.dtd"
   xmlns="http://www.w3.org/2000/svg"
   xmlns:svg="http://www.w3.org/2000/svg">
  <defs
     id="defs16" />
  <sodipodi:namedview
     id="namedview14"
     pagecolor="#ffffff"
     bordercolor="#666666"
     borderopacity="1.0"
     inkscape:pageshadow="2"
     inkscape:pageopacity="0.0"
     inkscape:pagecheckerboard="0"
     showgrid="false"
     inkscape:zoom="1.09125"
     inkscape:cx="400"
     inkscape:cy="400"
     inkscape:window-width="1664"
     inkscape:window-height="1111"
     inkscape:window-x="4905"
     inkscape:window-y="546"
     inkscape:window-maximized="0"
     inkscape:current-layer="svg12" />
  <path
     fill="#d39954"
     d="m 15.327184,9.1843069 a 2.070995,1.9143723 0 0 0 0.345901,0.6695849 c -0.109674,0.1799612 -0.143906,0.3759902 -9.8e-4,0.5456342 0.354758,0.419476 4.410139,1.029936 5.084775,-0.196483 C 21.035896,9.6957388 20.627812,9.5900857 20.354073,9.6983711 20.491471,9.486985 20.599898,9.2616641 20.645154,9.0363204 A 0.25262323,0.23351816 0 0 0 20.149015,8.950927 c -0.03155,0.1571312 -0.107421,0.3156543 -0.201245,0.4680451 -0.07476,-0.1084383 -0.165027,-0.2045603 -0.303163,-0.211619 -0.164627,-0.00798 -0.305751,0.107916 -0.416731,0.2444821 0.02203,-0.099216 0.02555,-0.1656124 0.02565,-0.1730101 A 0.25107656,0.23208845 0 0 0 19.007102,9.0442827 l -0.0032,1.466e-4 a 0.25365435,0.23447129 0 0 0 -0.254991,0.2264854 0.97388834,0.90023632 0 0 1 -0.06913,0.261725 C 18.497467,9.3533004 18.254096,9.170524 18.011782,9.1627238 17.703598,9.1532118 17.49759,9.3418859 17.362059,9.5453421 17.201404,9.2998467 17.139982,9.0449046 17.088632,8.7549569 a 0.2521115,0.23304512 0 1 0 -0.497641,0.075062 c 0.03636,0.2068826 0.08317,0.4570509 0.206251,0.7205333 -0.139653,-0.1504797 -0.298332,-0.2717368 -0.436451,-0.2382088 -0.0959,0.023178 -0.222702,0.091805 -0.34746,0.1837263 C 15.872887,9.2934206 15.821173,9.0894925 15.820518,9.0863534 a 0.25313879,0.23399472 0 0 0 -0.300564,-0.1777873 0.250561,0.23161188 0 0 0 -0.19277,0.2757408 z"
     id="path2"
     style="stroke-width:0.495679;fill:#c8b7b7" />
  <path
     fill="#edd6a6"
     d="m 14.132215,21.802399 c 1.231186,0.780007 2.532021,2.206579 2.514587,3.635316 -0.0063,0.503175 0.651995,-0.469628 1.153065,-0.464123 0.501209,0.005 1.135569,0.991323 1.141369,0.488019 0.01744,-1.428737 1.352678,-2.828085 2.602616,-3.581889 2.342132,-1.412843 4.365673,-3.299146 4.397261,-5.871909 0.04508,-3.682809 -3.519972,-6.2295924 -7.955154,-6.2757029 -4.435182,-0.04611 -8.0612955,2.4254939 -8.1062392,6.1078449 -0.031091,2.572891 1.9459862,4.50118 4.2524952,5.962444 z"
     id="path4"
     style="stroke-width:0.495679;fill:#483737" />
  <path
     fill="#e2a759"
     d="m 21.779747,10.783609 c 1.359188,1.338244 3.158002,3.427252 2.522817,6.210964 -0.695458,3.046246 -3.854592,3.999618 -4.555656,5.663127 0.395277,-2.089112 2.773023,-2.863212 3.384583,-5.491206 0.553891,-2.381119 0.02343,-4.369407 -1.351744,-6.382885 z"
     id="path6"
     style="stroke-width:0.495679;fill:#c8b7b7" />
  <path
     fill="#e2a759"
     d="m 18.791113,9.8613793 c 1.268597,1.2855907 2.618807,3.6058797 2.386074,6.1621997 -0.334958,3.680017 -2.236318,5.431664 -2.588337,8.183768 -0.01794,-3.292808 0.843353,-4.610465 1.128643,-7.792597 0.185827,-2.071082 -0.01962,-5.059567 -0.92638,-6.5533707 z m -4.623077,0.8425977 c -1.391555,1.309543 -3.321258,3.359705 -2.754089,6.156278 0.620705,3.059866 3.836156,4.079916 4.496652,5.757416 -0.343897,-2.096873 -2.782358,-2.921205 -3.330019,-5.561285 -0.49591,-2.392097 0.163873,-4.368186 1.587456,-6.352409 z"
     id="path8"
     style="stroke-width:0.495679;fill:#c8b7b7" />
  <path
     fill="#e2a759"
     d="m 17.178343,9.844213 c -1.299566,1.258628 -2.705977,3.55018 -2.535801,6.110841 0.244653,3.686061 2.102829,5.476667 2.38793,8.235846 0.09849,-3.291863 -0.730673,-4.626509 -0.937953,-7.813925 -0.135564,-2.074115 0.1427,-5.058124 1.085824,-6.532762 z"
     id="path10"
     style="stroke-width:0.495679;fill:#c8b7b7" />
</svg>
