<?xml version="1.0" encoding="UTF-8" standalone="no"?>
<!-- Uploaded to: SVG Repo, www.svgrepo.com, Generator: SVG Repo Mixer Tools -->

<svg
   height="800px"
   width="800px"
   version="1.1"
   id="Capa_1"
   viewBox="0 0 55.575 55.575"
   xml:space="preserve"
   sodipodi:docname="pumpkin.svg"
   inkscape:version="1.1.1 (3bf5ae0d25, 2021-09-20)"
   xmlns:inkscape="http://www.inkscape.org/namespaces/inkscape"
   xmlns:sodipodi="http://sodipodi.sourceforge.net/DTD/sodipodi-0.dtd"
   xmlns="http://www.w3.org/2000/svg"
   xmlns:svg="http://www.w3.org/2000/svg"><defs
   id="defs3219" /><sodipodi:namedview
   id="namedview3217"
   pagecolor="#ffffff"
   bordercolor="#666666"
   borderopacity="1.0"
   inkscape:pageshadow="2"
   inkscape:pageopacity="0.0"
   inkscape:pagecheckerboard="0"
   showgrid="false"
   inkscape:zoom="1.09125"
   inkscape:cx="400"
   inkscape:cy="400"
   inkscape:window-width="1664"
   inkscape:window-height="1111"
   inkscape:window-x="1387"
   inkscape:window-y="760"
   inkscape:window-maximized="0"
   inkscape:current-layer="g3214" />
<g
   id="g3214">
	<path
   style="fill:#a46f3e;stroke-width:0.741833"
   d="m 26.885655,12.352439 c 0.36424,0.159399 0.719614,0.339654 1.057257,0.555662 0.405614,-0.259955 0.838564,-0.46479 1.282597,-0.642066 0.0037,-2.3813039 0.943477,-4.0438222 1.551529,-4.8668879 C 30.898205,7.2352788 30.740098,7.0237397 30.544309,7.0781142 29.048191,7.4892746 27.432385,7.1399372 26.3803,6.795069 26.183034,6.730266 26.036009,6.960427 26.158653,7.1287644 c 1.039525,1.4278887 0.89176,3.9291146 0.727002,5.2236746 z"
   id="path3200" />
	<path
   style="fill:#d45500;stroke-width:0.741833"
   d="m 39.678381,11.737933 c -1.413369,0 -2.763938,0.426057 -3.953443,1.170168 -1.136311,-0.744111 -2.456588,-1.170168 -3.869218,-1.170168 -1.41263,0 -2.748423,0.426057 -3.911331,1.170168 -1.163647,-0.744111 -2.4987,-1.170168 -3.91133,-1.170168 -1.413369,0 -2.732908,0.426057 -3.869218,1.170168 -1.190245,-0.744111 -2.540814,-1.170168 -3.953444,-1.170168 -13.9238641,1.868843 -9.8603358,31.377052 1.73919,32.215015 1.203543,0 2.325816,-0.310605 3.301063,-0.857329 1.014404,0.547469 2.158842,0.857329 3.362385,0.857329 1.203543,0 2.337637,-0.310605 3.332093,-0.857329 0.994456,0.547469 2.127811,0.857329 3.332093,0.857329 1.203543,0 2.34872,-0.310605 3.362385,-0.857329 0.974508,0.547469 2.09752,0.857329 3.301063,0.857329 13.244886,0 14.122608,-33.84476 1.737712,-32.215015 z"
   id="path3202" />
	<g
   id="g3212"
   transform="matrix(0.73882332,0,0,0.74485586,7.3851527,4.6707401)">
		<path
   style="fill:#f79959"
   d="m 43.476,23.023 c 0.02,0.001 0.038,0.002 0.058,0.002 0.526,0 0.968,-0.411 0.997,-0.943 0.215,-3.811 -1.077,-7.493 -3.545,-10.104 -0.512,-0.542 -1.064,-1.023 -1.648,-1.443 -0.333,0.162 -0.664,0.328 -0.981,0.525 -1.538,-0.999 -3.325,-1.571 -5.237,-1.571 -1.913,0 -3.72,0.572 -5.294,1.571 -0.261,-0.166 -0.537,-0.301 -0.81,-0.442 -0.544,0.401 -1.062,0.853 -1.542,1.362 -2.468,2.611 -3.76,6.294 -3.544,10.104 l 0.22,3.901 c 0.029,0.532 0.471,0.943 0.997,0.943 0.019,0 0.038,-0.001 0.058,-0.002 0.551,-0.03 0.973,-0.503 0.941,-1.055 l -0.22,-3.901 c -0.184,-3.263 0.91,-6.403 3.001,-8.616 1.71,-1.81 3.945,-2.816 6.304,-2.857 2.359,0.041 4.593,1.048 6.303,2.856 2.091,2.213 3.186,5.354 3.002,8.617 -0.033,0.551 0.389,1.023 0.94,1.053 z"
   id="path3204" />
		<path
   style="fill:#f79959"
   d="m 22.531,9.488 c -1.913,0 -3.699,0.572 -5.237,1.571 -0.317,-0.197 -0.65,-0.363 -0.983,-0.526 -1.251,0.895 -2.355,2.049 -3.221,3.446 -0.291,0.469 -0.146,1.085 0.323,1.376 0.164,0.103 0.346,0.15 0.525,0.15 0.335,0 0.662,-0.168 0.851,-0.474 1.791,-2.889 4.612,-4.545 7.742,-4.545 0.527,0 0.946,-0.41 0.985,-0.926 C 23.19,9.527 22.865,9.488 22.531,9.488 Z"
   id="path3206" />
		<path
   style="fill:#f79959"
   d="m 43.937,32.605 c 0.031,-0.552 -0.391,-1.024 -0.941,-1.055 -0.537,-0.023 -1.024,0.39 -1.055,0.941 L 41.36,42.799 c -0.272,4.819 -4.167,8.749 -8.752,8.922 -3.604,-0.169 -6.68,-2.6 -7.904,-6.3 -0.173,-0.524 -0.741,-0.814 -1.263,-0.636 -0.524,0.173 -0.81,0.738 -0.636,1.263 0.827,2.501 2.361,4.523 4.32,5.867 0.236,-0.105 0.474,-0.205 0.699,-0.328 1.346,0.735 2.88,1.151 4.51,1.151 1.629,0 3.179,-0.417 4.551,-1.151 0.335,0.187 0.683,0.352 1.042,0.496 3.054,-1.915 5.209,-5.308 5.427,-9.17 z"
   id="path3208" />
		<path
   style="fill:#f79959"
   d="m 24.303,52.675 c -0.034,-0.522 -0.457,-0.938 -0.987,-0.938 -4.719,0 -8.784,-4.01 -9.063,-8.938 l -0.507,-8.997 c -0.03,-0.551 -0.497,-0.977 -1.055,-0.941 -0.551,0.03 -0.973,0.503 -0.941,1.055 l 0.507,8.997 c 0.218,3.869 2.386,7.261 5.449,9.175 0.365,-0.145 0.72,-0.312 1.06,-0.501 1.373,0.735 2.922,1.151 4.551,1.151 0.333,0 0.66,-0.029 0.986,-0.063 z"
   id="path3210" />
	</g>
</g>
</svg>
