<?xml version="1.0" encoding="UTF-8" standalone="no"?>
<!-- Uploaded to: SVG Repo, www.svgrepo.com, Generator: SVG Repo Mixer Tools -->

<svg
   height="800px"
   width="800px"
   version="1.1"
   id="Capa_1"
   viewBox="0 0 55.575 55.575"
   xml:space="preserve"
   sodipodi:docname="pumpkin_dead.svg"
   inkscape:version="1.1.1 (3bf5ae0d25, 2021-09-20)"
   xmlns:inkscape="http://www.inkscape.org/namespaces/inkscape"
   xmlns:sodipodi="http://sodipodi.sourceforge.net/DTD/sodipodi-0.dtd"
   xmlns="http://www.w3.org/2000/svg"
   xmlns:svg="http://www.w3.org/2000/svg"><defs
   id="defs3219" /><sodipodi:namedview
   id="namedview3217"
   pagecolor="#ffffff"
   bordercolor="#666666"
   borderopacity="1.0"
   inkscape:pageshadow="2"
   inkscape:pageopacity="0.0"
   inkscape:pagecheckerboard="0"
   showgrid="false"
   inkscape:zoom="1.09125"
   inkscape:cx="400"
   inkscape:cy="400"
   inkscape:window-width="1664"
   inkscape:window-height="1111"
   inkscape:window-x="1387"
   inkscape:window-y="760"
   inkscape:window-maximized="0"
   inkscape:current-layer="g3214" />
<g
   id="g3214">
	<path
   style="fill:#916f6f;stroke-width:0.724761"
   d="m 26.115346,13.021215 c 0.366499,0.151209 0.724077,0.322203 1.063813,0.527112 0.40813,-0.246598 0.843765,-0.440908 1.290552,-0.609076 0.0037,-2.258949 0.949329,-3.8360455 1.561151,-4.6168211 0.121919,-0.1554485 -0.03717,-0.3561184 -0.234172,-0.3045378 -1.505396,0.3900345 -3.131224,0.058647 -4.189833,-0.268502 -0.198489,-0.061473 -0.346427,0.1568617 -0.223021,0.3165498 1.045971,1.354522 0.897289,3.7272321 0.73151,4.9552751 z"
   id="path3200" />
	<path
   style="fill:#483737;stroke-width:0.724761"
   d="m 38.98741,12.438283 c -1.422134,0 -2.78108,0.404166 -3.977962,1.110044 -1.143357,-0.705878 -2.471823,-1.110044 -3.893214,-1.110044 -1.421391,0 -2.765468,0.404166 -3.935588,1.110044 -1.170864,-0.705878 -2.514197,-1.110044 -3.935588,-1.110044 -1.422134,0 -2.749857,0.404166 -3.893214,1.110044 -1.197626,-0.705878 -2.556571,-1.110044 -3.977962,-1.110044 -14.0102177,1.77282 -9.9214882,29.764861 1.749976,30.559768 1.211008,0 2.340241,-0.294645 3.321535,-0.813278 1.020696,0.519339 2.17223,0.813278 3.383238,0.813278 1.211008,0 2.352135,-0.294645 3.352758,-0.813278 1.000624,0.519339 2.141007,0.813278 3.352759,0.813278 1.211007,0 2.363285,-0.294645 3.383237,-0.813278 0.980552,0.519339 2.110528,0.813278 3.321536,0.813278 13.327028,0 14.210194,-32.105774 1.748489,-30.559768 z"
   id="path3202" />
	<g
   id="g3212"
   style="fill:#916f6f"
   transform="matrix(0.74340537,0,0,0.70658424,6.4939047,5.7342119)">
		<path
   style="fill:#916f6f"
   d="m 43.476,23.023 c 0.02,0.001 0.038,0.002 0.058,0.002 0.526,0 0.968,-0.411 0.997,-0.943 0.215,-3.811 -1.077,-7.493 -3.545,-10.104 -0.512,-0.542 -1.064,-1.023 -1.648,-1.443 -0.333,0.162 -0.664,0.328 -0.981,0.525 -1.538,-0.999 -3.325,-1.571 -5.237,-1.571 -1.913,0 -3.72,0.572 -5.294,1.571 -0.261,-0.166 -0.537,-0.301 -0.81,-0.442 -0.544,0.401 -1.062,0.853 -1.542,1.362 -2.468,2.611 -3.76,6.294 -3.544,10.104 l 0.22,3.901 c 0.029,0.532 0.471,0.943 0.997,0.943 0.019,0 0.038,-0.001 0.058,-0.002 0.551,-0.03 0.973,-0.503 0.941,-1.055 l -0.22,-3.901 c -0.184,-3.263 0.91,-6.403 3.001,-8.616 1.71,-1.81 3.945,-2.816 6.304,-2.857 2.359,0.041 4.593,1.048 6.303,2.856 2.091,2.213 3.186,5.354 3.002,8.617 -0.033,0.551 0.389,1.023 0.94,1.053 z"
   id="path3204" />
		<path
   style="fill:#916f6f"
   d="m 22.531,9.488 c -1.913,0 -3.699,0.572 -5.237,1.571 -0.317,-0.197 -0.65,-0.363 -0.983,-0.526 -1.251,0.895 -2.355,2.049 -3.221,3.446 -0.291,0.469 -0.146,1.085 0.323,1.376 0.164,0.103 0.346,0.15 0.525,0.15 0.335,0 0.662,-0.168 0.851,-0.474 1.791,-2.889 4.612,-4.545 7.742,-4.545 0.527,0 0.946,-0.41 0.985,-0.926 C 23.19,9.527 22.865,9.488 22.531,9.488 Z"
   id="path3206" />
		<path
   style="fill:#916f6f"
   d="m 43.937,32.605 c 0.031,-0.552 -0.391,-1.024 -0.941,-1.055 -0.537,-0.023 -1.024,0.39 -1.055,0.941 L 41.36,42.799 c -0.272,4.819 -4.167,8.749 -8.752,8.922 -3.604,-0.169 -6.68,-2.6 -7.904,-6.3 -0.173,-0.524 -0.741,-0.814 -1.263,-0.636 -0.524,0.173 -0.81,0.738 -0.636,1.263 0.827,2.501 2.361,4.523 4.32,5.867 0.236,-0.105 0.474,-0.205 0.699,-0.328 1.346,0.735 2.88,1.151 4.51,1.151 1.629,0 3.179,-0.417 4.551,-1.151 0.335,0.187 0.683,0.352 1.042,0.496 3.054,-1.915 5.209,-5.308 5.427,-9.17 z"
   id="path3208" />
		<path
   style="fill:#916f6f"
   d="m 24.303,52.675 c -0.034,-0.522 -0.457,-0.938 -0.987,-0.938 -4.719,0 -8.784,-4.01 -9.063,-8.938 l -0.507,-8.997 c -0.03,-0.551 -0.497,-0.977 -1.055,-0.941 -0.551,0.03 -0.973,0.503 -0.941,1.055 l 0.507,8.997 c 0.218,3.869 2.386,7.261 5.449,9.175 0.365,-0.145 0.72,-0.312 1.06,-0.501 1.373,0.735 2.922,1.151 4.551,1.151 0.333,0 0.66,-0.029 0.986,-0.063 z"
   id="path3210" />
	</g>
</g>
</svg>
