<?xml version="1.0" encoding="UTF-8" standalone="no"?>
<!-- Uploaded to: SVG Repo, www.svgrepo.com, Generator: SVG Repo Mixer Tools -->

<svg
   width="800px"
   height="800px"
   viewBox="0 0 36 36"
   aria-hidden="true"
   role="img"
   class="iconify iconify--twemoji"
   preserveAspectRatio="xMidYMid meet"
   version="1.1"
   id="svg3386"
   sodipodi:docname="strawberry.svg"
   inkscape:version="1.1.1 (3bf5ae0d25, 2021-09-20)"
   xmlns:inkscape="http://www.inkscape.org/namespaces/inkscape"
   xmlns:sodipodi="http://sodipodi.sourceforge.net/DTD/sodipodi-0.dtd"
   xmlns="http://www.w3.org/2000/svg"
   xmlns:svg="http://www.w3.org/2000/svg">
  <defs
     id="defs3390" />
  <sodipodi:namedview
     id="namedview3388"
     pagecolor="#ffffff"
     bordercolor="#666666"
     borderopacity="1.0"
     inkscape:pageshadow="2"
     inkscape:pageopacity="0.0"
     inkscape:pagecheckerboard="0"
     showgrid="false"
     inkscape:zoom="1.09125"
     inkscape:cx="400"
     inkscape:cy="399.54181"
     inkscape:window-width="3682"
     inkscape:window-height="2126"
     inkscape:window-x="3987"
     inkscape:window-y="-11"
     inkscape:window-maximized="1"
     inkscape:current-layer="svg3386" />
  <path
     fill="#be1931"
     d="m 14.157068,18.51346 c 0.994088,-0.350432 1.756449,-0.921329 1.757312,-2.846282 5.74e-4,-1.218013 1.224949,-2.572675 1.224661,-3.811337 -2.86e-4,-1.190683 -1.325162,-3.1532907 -4.335847,-2.8198617 -3.094534,0.34284 -4.2781347,1.3255117 -4.2784208,3.4733547 0,1.496173 1.5230018,2.545044 2.3336048,4.104985 0.538106,1.035204 2.132032,2.913999 3.29869,1.899141 z"
     id="path3380"
     style="stroke-width:0.295291" />
  <path
     fill="#77b255"
     d="m 15.201692,9.0168477 c -0.366967,-0.3170302 -0.941826,-0.470685 -1.536211,-0.5092514 0.07839,-0.011341 0.155633,-0.023075 0.235456,-0.028549 0.27939,-0.019193 1.037734,-0.3741196 0.402,-0.3300877 -0.278241,0.019193 -0.545858,0.078646 -0.814622,0.12846 0.06806,-0.04676 0.137542,-0.092932 0.212485,-0.1342178 -0.0072,-0.2110541 -1.155748,-0.2110541 -1.735489,0.3015407 -0.147009,-0.034002 -0.281687,-0.2089166 -1.143112,-0.2089166 -0.574285,0 -1.3452613,0.2811967 -0.8614273,0.3036695 0.2633093,0.012432 0.5742853,0 0.5335103,0.1108377 -0.188068,0.01832 -1.1077953,0.1928209 -1.1077953,0.4964969 0,0.1071955 0.7925123,-0.05254 0.8614273,0 -0.4944597,0.195569 -0.8614273,0.6073368 -0.8614273,0.911004 0,0.12846 0.6348713,-0.2505253 0.8614273,-0.3036672 C 9.9607717,10.057834 9.8459139,10.270707 9.86257,10.49117 c 0.010908,0.14425 0.685695,-0.02733 0.755757,-0.05132 0.236032,-0.08198 1.065297,-0.382015 1.320854,-0.827193 0.03359,0.086541 0.850804,0.407221 1.180156,0.445178 0.151907,0.01767 0.752311,0.0832 0.614771,-0.2159172 -0.04048,-0.087763 -0.327629,-0.391428 -0.415207,-0.6875055 0.128055,-0.00567 2.384716,0.2960775 1.882791,-0.1375547 z"
     id="path3382"
     style="stroke-width:0.295291" />
  <path
     fill="#f4abba"
     d="m 10.345256,13.187426 c -0.03904,-0.443355 -0.7293418,-0.987528 -0.6693299,-0.30367 0.039063,0.443358 0.7293409,0.987529 0.6693299,0.30367 z m 2.141507,0.167936 c -0.01976,-0.188874 -0.08099,-0.361671 -0.197268,-0.50743 -0.133817,-0.16702 -0.308678,-0.109922 -0.354333,0.09596 -0.0537,0.24263 0.02354,0.532025 0.174011,0.720301 l 0.01173,0.01461 c -0.06117,-0.159408 -0.122621,-0.318844 -0.184343,-0.477967 l 0.0017,0.01418 c 0.02037,0.194347 0.113998,0.525344 0.326193,0.578792 0.216505,0.05527 0.23718,-0.300025 0.222249,-0.438498 z m 1.651642,-1.470058 c 0.136678,-0.290004 0.04882,-1.203134 -0.238616,-0.593368 -0.136678,0.289698 -0.04911,1.203132 0.238616,0.593368 z m 2.070582,-0.442446 c -0.0086,-0.108417 -0.02095,-0.236859 -0.112269,-0.306703 -0.34141,-0.260547 -0.683685,0.716351 -0.397691,0.935296 0.0058,0.0037 0.01029,0.0076 0.01585,0.01178 l -0.09504,-0.27907 a 0.12634261,0.13361396 0 0 0 8.6e-4,0.0157 c 0.01399,0.171273 0.107968,0.418152 0.311264,0.287877 0.191525,-0.123291 0.295181,-0.438496 0.27709,-0.665033 z m -0.386207,2.601525 c 0.291738,-0.476456 -0.156497,-1.047959 -0.511112,-0.468255 -0.291736,0.47615 0.156785,1.047653 0.511112,0.468255 z m -1.650492,0.878815 c 0.04968,-0.588508 -0.663011,-0.835695 -0.720729,-0.150619 -0.04968,0.588511 0.663012,0.835695 0.720729,0.150619 z m -2.84156,-0.368046 -0.014,0.0012 0.391086,0.217117 c -0.0017,-0.0012 -0.0031,-0.0033 -0.0052,-0.0052 -0.08786,-0.08504 -0.388503,-0.328873 -0.513408,-0.179779 -0.126346,0.150924 0.142996,0.431513 0.230862,0.517147 0.09821,0.09535 0.266466,0.231699 0.410325,0.221677 0.412628,-0.02824 -0.224828,-0.791047 -0.499622,-0.772221 z m 3.79803,1.793769 c 0.278241,-0.32371 0.208177,-1.229857 -0.22914,-0.721516 -0.278241,0.323711 -0.207891,1.229856 0.22914,0.721516 z m -3.84742,-4.240422 c 0.02669,-0.0015 0.05369,-0.0037 0.08039,-0.0057 0.201857,-0.01396 0.288291,-0.441533 0.299203,-0.592759 0.01255,-0.173388 -0.01235,-0.442142 -0.225406,-0.427261 l -0.08068,0.0059 c -0.201569,0.01418 -0.288291,0.441534 -0.299203,0.59276 -0.01255,0.173388 0.01255,0.442445 0.225694,0.427261 z m 2.25292,4.633065 c 0.113421,0.232002 0.07236,0.492852 -0.09189,0.582737 -0.164256,0.08988 -0.389652,-0.0246 -0.503361,-0.256294 -0.113421,-0.232002 -0.07236,-0.492854 0.09189,-0.582739 0.164524,-0.08988 0.389652,0.0246 0.503362,0.256296 z"
     id="path3384"
     style="fill:#ff5555;stroke-width:0.295291" />
  <path
     fill="#be1931"
     d="m 18.901882,23.221363 c 0.996694,0.342011 1.930027,0.360909 3.007183,-1.189069 0.681591,-0.980741 2.425365,-1.303006 3.117809,-2.30092 0.665619,-0.959263 0.695957,-3.372143 -1.915577,-4.994262 -2.68434,-1.667198 -4.187243,-1.618961 -5.388578,0.110925 -0.836685,1.205153 -0.196465,3.006449 -0.415874,4.772022 -0.145466,1.171773 0.08778,3.686105 1.595037,3.601302 z"
     id="path3380-8"
     style="stroke-width:0.295291" />
  <path
     fill="#77b255"
     d="m 25.053968,16.227946 c -0.118299,-0.485819 -0.495419,-0.970593 -0.952623,-1.374928 0.06948,0.04011 0.138262,0.07915 0.205624,0.124883 0.235778,0.159997 1.045099,0.350336 0.508397,-0.01352 -0.234855,-0.159277 -0.483665,-0.279443 -0.728008,-0.40811 0.08101,0.005 0.162754,0.01156 0.246209,0.02534 0.112228,-0.174544 -0.81292,-0.895807 -1.566545,-0.846992 -0.09941,-0.119715 -0.110066,-0.345176 -0.803936,-0.88615 -0.462583,-0.360648 -1.240847,-0.618314 -0.863692,-0.296363 0.20515,0.175373 0.462582,0.360648 0.367756,0.424319 -0.161745,-0.103357 -1.000147,-0.540374 -1.169968,-0.295763 -0.05995,0.08632 0.667743,0.455374 0.693872,0.540974 -0.50765,-0.152975 -1.033504,-0.05178 -1.203319,0.192842 -0.07183,0.103488 0.651496,0.196834 0.863689,0.296364 -0.401105,0.06427 -0.612666,0.163617 -0.722535,0.351653 -0.07189,0.123029 0.567607,0.408603 0.637454,0.433277 0.235976,0.08216 1.071717,0.361286 1.526515,0.163203 -0.02136,0.09079 0.45759,0.862313 0.701654,1.09972 0.112475,0.109638 0.55945,0.539469 0.615935,0.212166 0.01646,-0.09609 -0.04501,-0.521039 0.05001,-0.814526 0.106321,0.07583 1.755295,1.736078 1.593492,1.071584 z"
     id="path3382-3"
     style="stroke-width:0.295291" />
  <path
     fill="#f4abba"
     d="m 18.8099,16.537491 c 0.216476,-0.38164 -0.03523,-1.253469 -0.369322,-0.664939 -0.216457,0.381653 0.03524,1.253467 0.369322,0.664939 z m 1.631052,1.480126 c 0.08971,-0.164555 0.137007,-0.342184 0.124844,-0.532621 -0.01441,-0.218576 -0.187163,-0.282389 -0.339079,-0.14521 -0.17893,0.161699 -0.278558,0.443325 -0.262645,0.689471 l 0.0012,0.01919 c 0.03997,-0.166801 0.07957,-0.333819 0.118731,-0.500784 l -0.0064,0.01265 c -0.09229,0.169354 -0.20196,0.494753 -0.06092,0.671061 0.14349,0.180477 0.358828,-0.09274 0.424234,-0.213627 z m 2.152464,-0.14689 c 0.272267,-0.147761 0.712134,-0.938453 0.139621,-0.6278 -0.272098,0.147521 -0.712364,0.93827 -0.139621,0.6278 z m 1.915256,0.943929 c 0.05367,-0.09276 0.115582,-0.203944 0.08109,-0.31755 -0.129309,-0.424273 -0.951294,0.147653 -0.843367,0.503625 0.0025,0.0065 0.0039,0.01265 0.0062,0.01941 l 0.07961,-0.284449 a 0.13371201,0.12624997 89.028013 0 0 -0.008,0.0133 c -0.08451,0.146759 -0.146886,0.404619 0.08973,0.427356 0.22322,0.02094 0.48298,-0.167827 0.59509,-0.361669 z m -1.7659,1.852967 c 0.501437,-0.200563 0.459977,-0.942399 -0.14985,-0.698151 -0.501259,0.200324 -0.459573,0.942336 0.14985,0.698151 z M 20.92187,20.338997 c 0.369122,-0.442836 -0.06672,-1.089514 -0.496311,-0.573935 -0.369124,0.44284 0.06672,1.089511 0.496311,0.573935 z m -2.083033,-2.080944 -0.01194,-0.0079 0.193604,0.420484 c -7.08e-4,-0.0021 -6.77e-4,-0.0046 -0.0013,-0.0074 -0.02322,-0.123662 -0.129022,-0.508883 -0.313013,-0.467228 -0.186154,0.04222 -0.126222,0.437353 -0.103233,0.561536 0.02579,0.138493 0.08506,0.353974 0.206549,0.436243 0.348163,0.236371 0.261264,-0.778374 0.02939,-0.935778 z m 2.056175,3.830009 c 0.405145,-0.086 0.85544,-0.859904 0.218914,-0.725071 -0.405147,0.086 -0.855212,0.86008 -0.218914,0.725071 z m -0.727753,-5.831781 c 0.02235,0.01548 0.04532,0.03082 0.06794,0.04591 0.170409,0.115527 0.479129,-0.174609 0.572486,-0.289563 0.107082,-0.131775 0.237299,-0.363897 0.05736,-0.485712 l -0.06827,-0.04593 c -0.170286,-0.115178 -0.479129,0.174609 -0.572486,0.289565 -0.107083,0.131775 -0.237312,0.364268 -0.05713,0.485891 z m -0.776175,5.146714 c -0.03838,0.258104 -0.217314,0.442432 -0.399893,0.41168 -0.182594,-0.03069 -0.300106,-0.264512 -0.26213,-0.522551 0.03838,-0.258104 0.217336,-0.44243 0.399896,-0.411683 0.182779,0.03097 0.300105,0.264513 0.262127,0.522554 z"
     id="path3384-6"
     style="fill:#ff5555;stroke-width:0.295291" />
  <path
     fill="#be1931"
     d="m 15.079161,28.635104 c 0.790826,-0.728169 1.287795,-1.565574 0.590904,-3.343228 -0.440931,-1.124821 0.198544,-2.873925 -0.250667,-4.017462 -0.43182,-1.099236 -2.366409,-2.372052 -5.025315,-0.838785 -2.7329158,1.576087 -3.4695674,2.965135 -2.6913609,4.948348 0.5422796,1.381412 2.3286179,1.729938 3.6424359,2.840293 0.872035,0.736781 3.02466,1.822704 3.734003,0.410834 z"
     id="path3380-5"
     style="stroke-width:0.295291" />
  <path
     fill="#77b255"
     d="m 12.601675,19.441724 c -0.453727,-0.143357 -1.040183,-0.05123 -1.602955,0.155089 0.06827,-0.04238 0.13534,-0.08464 0.207048,-0.1222 0.251004,-0.131448 0.82254,-0.767805 0.251527,-0.468393 -0.249943,0.130968 -0.475484,0.294791 -0.705578,0.450177 0.0459,-0.07088 0.09331,-0.141786 0.147544,-0.210421 -0.08315,-0.191927 -1.1435933,0.27555 -1.4930794,0.984793 -0.1480589,0.02844 -0.3358019,-0.07823 -1.1311524,0.272381 -0.5302356,0.233745 -1.1401585,0.807179 -0.68529,0.630996 0.247619,-0.0957 0.5302336,-0.233747 0.5327589,-0.114807 -0.1669933,0.09346 -0.9529362,0.628927 -0.8428717,0.90931 0.038857,0.09897 0.7126832,-0.37108 0.7953546,-0.35062 -0.3856509,0.381825 -0.5752297,0.911373 -0.4651672,1.191747 0.046554,0.118602 0.4953737,-0.489714 0.6852921,-0.630994 -0.1550564,0.397249 -0.183952,0.640543 -0.088662,0.837316 0.06236,0.128743 0.6231955,-0.304324 0.6791878,-0.354991 0.1882123,-0.171774 0.8451274,-0.786313 0.919729,-1.301363 0.062381,0.06624 0.9331393,0.02968 1.2509863,-0.06931 0.14666,-0.04552 0.724765,-0.229385 0.48936,-0.449582 -0.06919,-0.06456 -0.44437,-0.228052 -0.632541,-0.465773 0.116179,-0.05736 2.309112,-0.697263 1.68852,-0.89334 z"
     id="path3382-5"
     style="stroke-width:0.295291" />
  <path
     fill="#f4abba"
     d="m 9.6293401,25.269083 c -0.1967327,-0.393458 -1.0313226,-0.614924 -0.728055,-0.0079 0.1967532,0.39345 1.0313226,0.614925 0.728055,0.0079 z m 2.0381129,-0.716587 c -0.08669,-0.166343 -0.205859,-0.300965 -0.366052,-0.388215 -0.184096,-0.09974 -0.324841,0.02414 -0.292372,0.232824 0.03836,0.245874 0.214568,0.481634 0.421733,0.594225 l 0.01605,0.0087 c -0.114244,-0.122288 -0.228779,-0.24448 -0.343439,-0.366275 l 0.0068,0.01243 c 0.08926,0.171142 0.295661,0.438651 0.510952,0.401628 0.219929,-0.0371 0.110252,-0.373548 0.04627,-0.495323 z m 0.992144,-2.029555 c 0.02107,-0.32339 -0.390993,-1.130719 -0.435376,-0.450731 -0.0212,0.323109 0.390728,1.130834 0.435376,0.450731 z m 1.751401,-1.251279 c -0.04727,-0.09657 -0.105189,-0.21016 -0.214819,-0.237483 -0.409659,-0.101612 -0.371609,0.939679 -0.0282,1.025425 0.0066,0.0011 0.01235,0.0028 0.01893,0.0044 l -0.188891,-0.21898 a 0.12630339,0.13365545 0.73285924 0 0 0.0066,0.01418 c 0.075,0.15245 0.251241,0.342133 0.391726,0.139103 0.13215,-0.191796 0.113607,-0.525007 0.01482,-0.726805 z m 0.586323,2.559175 c 0.09667,-0.558653 -0.524319,-0.903879 -0.641626,-0.224306 -0.09677,0.558371 0.524475,0.903482 0.641626,0.224306 z m -1.205375,1.483194 c -0.167426,-0.563591 -0.915049,-0.501736 -0.720037,0.154283 0.167425,0.563593 0.915049,0.501735 0.720037,-0.154283 z m -2.757,0.816761 -0.01255,0.0068 0.439783,0.04129 c -0.002,-4.19e-4 -0.0041,-0.0018 -0.0066,-0.0028 -0.11194,-0.04275 -0.477903,-0.145515 -0.539189,0.04299 -0.06195,0.19077 0.288427,0.340211 0.400591,0.383513 0.125235,0.04807 0.330006,0.105472 0.459197,0.03766 0.370742,-0.19402 -0.494292,-0.638863 -0.741186,-0.509633 z m 4.15685,0.110293 c 0.139579,-0.412132 -0.253544,-1.220257 -0.473073,-0.57291 -0.139579,0.412132 0.253808,1.220139 0.473073,0.57291 z m -5.089225,-2.349179 c 0.0241,-0.01221 0.04824,-0.02528 0.07218,-0.03795 0.181317,-0.09505 0.106136,-0.525007 0.06141,-0.669074 -0.05125,-0.165209 -0.171645,-0.403203 -0.3629749,-0.302744 l -0.072362,0.03828 c -0.1809678,0.09513 -0.1061357,0.525007 -0.061413,0.669074 0.051246,0.165209 0.1719533,0.403399 0.3632419,0.302627 z m 3.759339,3.360709 c 0.188809,0.168045 0.245444,0.425595 0.126367,0.575442 -0.119081,0.149834 -0.368682,0.135875 -0.557645,-0.03175 -0.188809,-0.168045 -0.245444,-0.425598 -0.126367,-0.575444 0.119328,-0.149943 0.36868,-0.135876 0.557645,0.03176 z"
     id="path3384-1"
     style="fill:#ff5555;stroke-width:0.295291" />
</svg>
