<?xml version="1.0" encoding="UTF-8" standalone="no"?>
<!-- Uploaded to: SVG Repo, www.svgrepo.com, Generator: SVG Repo Mixer Tools -->

<svg
   width="800px"
   height="800px"
   viewBox="0 0 36 36"
   aria-hidden="true"
   role="img"
   class="iconify iconify--twemoji"
   preserveAspectRatio="xMidYMid meet"
   version="1.1"
   id="svg3386"
   sodipodi:docname="strawberry_dead.svg"
   inkscape:version="1.1.1 (3bf5ae0d25, 2021-09-20)"
   xmlns:inkscape="http://www.inkscape.org/namespaces/inkscape"
   xmlns:sodipodi="http://sodipodi.sourceforge.net/DTD/sodipodi-0.dtd"
   xmlns="http://www.w3.org/2000/svg"
   xmlns:svg="http://www.w3.org/2000/svg">
  <defs
     id="defs3390" />
  <sodipodi:namedview
     id="namedview3388"
     pagecolor="#ffffff"
     bordercolor="#666666"
     borderopacity="1.0"
     inkscape:pageshadow="2"
     inkscape:pageopacity="0.0"
     inkscape:pagecheckerboard="0"
     showgrid="false"
     inkscape:zoom="1.09125"
     inkscape:cx="400"
     inkscape:cy="399.54181"
     inkscape:window-width="3682"
     inkscape:window-height="2126"
     inkscape:window-x="3987"
     inkscape:window-y="-11"
     inkscape:window-maximized="1"
     inkscape:current-layer="svg3386" />
  <path
     fill="#be1931"
     d="m 14.404979,18.528229 c 0.881081,-0.316528 1.556777,-0.832191 1.557542,-2.570906 5.09e-4,-1.100171 1.085698,-2.32377 1.085443,-3.442593 -2.53e-4,-1.075485 -1.174519,-2.8482113 -3.842952,-2.5470413 -2.74275,0.3096703 -3.7918006,1.1972693 -3.7920541,3.1373093 0,1.35142 1.3498681,2.298813 2.0683231,3.707831 0.476934,0.935048 1.889664,2.632071 2.923698,1.7154 z"
     id="path3380"
     style="stroke-width:0.26421;fill:#ac9d93" />
  <path
     fill="#77b255"
     d="M 15.330851,9.950408 C 15.0056,9.6640503 14.496091,9.5252615 13.969275,9.4904264 c 0.06948,-0.010244 0.137941,-0.020843 0.20869,-0.025787 0.247629,-0.017336 0.919765,-0.3379238 0.356301,-0.2981519 -0.246611,0.017336 -0.483806,0.071037 -0.722017,0.1160315 0.06032,-0.042236 0.121906,-0.083941 0.18833,-0.1212323 -0.0064,-0.1906347 -1.024364,-0.1906347 -1.5382,0.2723669 -0.130298,-0.030712 -0.249665,-0.1887041 -1.013164,-0.1887041 -0.509001,0 -1.192334,0.2539911 -0.763502,0.2742897 0.233377,0.011229 0.509002,0 0.472862,0.1001142 -0.166689,0.016547 -0.981862,0.1741656 -0.981862,0.4484616 0,0.09682 0.70242,-0.04746 0.763501,0 -0.43825,0.176647 -0.763501,0.548577 -0.763501,0.822865 0,0.116031 0.562699,-0.226288 0.763501,-0.274288 -0.254501,0.274288 -0.356301,0.466565 -0.341539,0.665699 0.0097,0.130293 0.607746,-0.02469 0.669843,-0.04636 0.209201,-0.07405 0.944196,-0.345056 1.170701,-0.747163 0.02977,0.07817 0.754086,0.367823 1.045997,0.402107 0.134638,0.01596 0.666789,0.07515 0.544885,-0.195027 -0.03588,-0.07927 -0.290385,-0.353557 -0.368007,-0.62099 0.113498,-0.0051 2.113624,0.267433 1.668757,-0.1242461 z"
     id="path3382"
     style="stroke-width:0.26421;fill:#784421" />
  <path
     fill="#f4abba"
     d="m 11.02649,13.717485 c -0.0346,-0.40046 -0.646431,-0.891985 -0.593241,-0.27429 0.03462,0.400464 0.64643,0.891987 0.593241,0.27429 z m 1.898062,0.151689 c -0.01751,-0.170601 -0.07178,-0.32668 -0.174842,-0.458337 -0.118605,-0.150861 -0.273588,-0.09929 -0.314053,0.08668 -0.0476,0.219156 0.02086,0.480552 0.15423,0.650613 l 0.0104,0.0132 C 12.546067,14.017345 12.491606,13.873334 12.4369,13.729606 l 0.0015,0.01281 c 0.01805,0.175544 0.101039,0.474517 0.289111,0.522794 0.191893,0.04992 0.210218,-0.270997 0.196984,-0.396073 z m 1.463885,-1.327831 c 0.121141,-0.261946 0.04327,-1.086732 -0.21149,-0.53596 -0.121141,0.26167 -0.04353,1.08673 0.21149,0.53596 z m 1.835201,-0.39964 c -0.0076,-0.09793 -0.01857,-0.213943 -0.09951,-0.277029 -0.302599,-0.23534 -0.605964,0.647044 -0.352482,0.844806 0.0051,0.0033 0.0091,0.0069 0.01405,0.01064 l -0.08424,-0.25207 a 0.1119801,0.12068689 0 0 0 7.62e-4,0.01418 c 0.0124,0.154702 0.09569,0.377696 0.27588,0.260025 0.169752,-0.111363 0.261625,-0.396072 0.24559,-0.600692 z m -0.342304,2.349829 c 0.258574,-0.430359 -0.138706,-0.946569 -0.453009,-0.422951 -0.258572,0.430083 0.138962,0.946293 0.453009,0.422951 z m -1.462865,0.793791 c 0.04403,-0.531571 -0.587641,-0.754842 -0.638798,-0.136047 -0.04403,0.531573 0.587642,0.754842 0.638798,0.136047 z m -2.518535,-0.332438 -0.01241,0.0011 0.346628,0.196111 c -0.0015,-0.0011 -0.0027,-0.003 -0.0046,-0.0047 -0.07787,-0.07681 -0.344339,-0.297055 -0.455044,-0.162386 -0.111984,0.136323 0.12674,0.389765 0.204617,0.467114 0.08705,0.08613 0.236175,0.209282 0.36368,0.20023 0.365721,-0.02551 -0.19927,-0.714514 -0.442825,-0.697509 z m 3.366274,1.620223 c 0.246611,-0.292391 0.184512,-1.110869 -0.203092,-0.65171 -0.24661,0.292392 -0.184258,1.110868 0.203092,0.65171 z m -3.410049,-3.830164 c 0.02366,-0.0014 0.04759,-0.0033 0.07125,-0.0051 0.17891,-0.01261 0.255519,-0.398814 0.26519,-0.535409 0.01112,-0.156613 -0.01095,-0.399366 -0.199782,-0.385924 l -0.07151,0.0053 c -0.178655,0.01281 -0.255519,0.398816 -0.26519,0.535411 -0.01112,0.156613 0.01112,0.399638 0.200037,0.385924 z m 1.99681,4.184819 c 0.100528,0.209556 0.06413,0.445169 -0.08144,0.526357 -0.145583,0.08119 -0.345356,-0.02222 -0.446139,-0.231497 -0.100528,-0.209556 -0.06413,-0.445171 0.08144,-0.52636 0.145821,-0.08118 0.345357,0.02222 0.446139,0.2315 z"
     id="path3384"
     style="fill:#784421;stroke-width:0.26421" />
  <path
     fill="#be1931"
     d="m 18.610407,22.780645 c 0.883391,0.308922 1.710623,0.325992 2.665329,-1.074027 0.604109,-0.885855 2.149652,-1.176941 2.76338,-2.078307 0.589952,-0.866455 0.616841,-3.045891 -1.697816,-4.511071 -2.379187,-1.505897 -3.711242,-1.462327 -4.77601,0.100193 -0.741571,1.088556 -0.174131,2.715577 -0.368598,4.310332 -0.128929,1.058405 0.0778,3.329477 1.413715,3.252878 z"
     id="path3380-8"
     style="stroke-width:0.26421;fill:#ac9d93" />
  <path
     fill="#77b255"
     d="m 24.06313,16.463837 c -0.104851,-0.438816 -0.4391,-0.876689 -0.84433,-1.241905 0.06158,0.03623 0.122545,0.07149 0.182249,0.112801 0.208975,0.144518 0.926293,0.316441 0.450603,-0.01221 -0.208157,-0.143867 -0.428683,-0.252407 -0.645249,-0.368625 0.0718,0.0045 0.144252,0.01044 0.21822,0.02289 0.09947,-0.157657 -0.720508,-0.809138 -1.388461,-0.765046 -0.08811,-0.108133 -0.09755,-0.311781 -0.712546,-0.800416 -0.409997,-0.325755 -1.099788,-0.558492 -0.765508,-0.26769 0.181829,0.158406 0.409996,0.325756 0.32595,0.383267 -0.143358,-0.09336 -0.886451,-0.488093 -1.036967,-0.267148 -0.05313,0.07797 0.591834,0.411316 0.614993,0.488635 -0.449941,-0.138175 -0.916016,-0.04677 -1.066527,0.174184 -0.06366,0.09348 0.577435,0.177791 0.765506,0.267691 -0.355508,0.05805 -0.543019,0.147787 -0.640398,0.317631 -0.06372,0.111126 0.503082,0.369071 0.564989,0.391358 0.20915,0.07421 0.949885,0.326332 1.352982,0.147413 -0.01893,0.08201 0.405572,0.778885 0.621891,0.993323 0.09969,0.09903 0.495852,0.487275 0.545916,0.191639 0.01459,-0.08679 -0.03989,-0.470629 0.04433,-0.735721 0.09423,0.06849 1.555754,1.568113 1.412345,0.967909 z"
     id="path3382-3"
     style="stroke-width:0.26421;fill:#784421" />
  <path
     fill="#f4abba"
     d="m 18.528881,16.743434 c 0.191868,-0.344717 -0.03122,-1.132197 -0.327337,-0.600607 -0.191851,0.344729 0.03123,1.132195 0.327337,0.600607 z m 1.445636,1.336924 c 0.07951,-0.148634 0.121432,-0.309077 0.110652,-0.48109 -0.01277,-0.197429 -0.165887,-0.255068 -0.300533,-0.131161 -0.158589,0.146055 -0.246892,0.400434 -0.232788,0.622765 l 0.0011,0.01733 c 0.03543,-0.150663 0.07052,-0.301523 0.105234,-0.452334 l -0.0057,0.01143 c -0.0818,0.152969 -0.179001,0.446886 -0.054,0.606137 0.127179,0.163016 0.318037,-0.08377 0.376008,-0.192959 z m 1.907774,-0.132678 c 0.241316,-0.133465 0.631179,-0.847658 0.123749,-0.567061 -0.241166,0.133249 -0.631383,0.847493 -0.123749,0.567061 z m 1.697532,0.852604 c 0.04757,-0.08379 0.102442,-0.184212 0.07187,-0.286827 -0.114609,-0.383225 -0.843152,0.133368 -0.747494,0.4549 0.0022,0.0059 0.0035,0.01143 0.0055,0.01753 l 0.07056,-0.256929 a 0.12077496,0.11189845 89.269194 0 0 -0.0071,0.01201 c -0.0749,0.132561 -0.130188,0.365473 0.07953,0.38601 0.197844,0.01891 0.428075,-0.15159 0.52744,-0.326678 z m -1.565155,1.673694 c 0.444434,-0.181159 0.407688,-0.851222 -0.132815,-0.630605 -0.444276,0.180942 -0.407329,0.851165 0.132815,0.630605 z m -1.613903,-0.296832 c 0.32716,-0.399991 -0.05914,-0.984104 -0.439891,-0.518407 -0.327162,0.399996 0.05914,0.984102 0.439891,0.518407 z m -1.846236,-1.879614 -0.01058,-0.0071 0.171595,0.379802 c -6.27e-4,-0.0019 -6e-4,-0.0042 -0.0012,-0.0067 -0.02058,-0.111698 -0.114355,-0.459649 -0.27743,-0.422024 -0.164992,0.03814 -0.111873,0.39504 -0.0915,0.507208 0.02286,0.125094 0.07539,0.319727 0.183068,0.394037 0.308585,0.213502 0.231564,-0.703067 0.02605,-0.845242 z m 1.822431,3.459458 c 0.359088,-0.07768 0.758194,-0.776708 0.194028,-0.65492 -0.35909,0.07768 -0.757992,0.776867 -0.194028,0.65492 z m -0.645023,-5.267559 c 0.01981,0.01398 0.04017,0.02784 0.06022,0.04147 0.151037,0.10435 0.424662,-0.157716 0.507406,-0.261548 0.09491,-0.119026 0.210323,-0.32869 0.05084,-0.43872 l -0.06051,-0.04149 c -0.150928,-0.104035 -0.424662,0.157716 -0.507406,0.26155 -0.09491,0.119026 -0.210335,0.329025 -0.05063,0.438881 z m -0.68794,4.648772 c -0.03402,0.233133 -0.19261,0.399627 -0.354434,0.37185 -0.161836,-0.02772 -0.26599,-0.23892 -0.232331,-0.471994 0.03402,-0.233133 0.19263,-0.399625 0.354436,-0.371853 0.162001,0.02797 0.26599,0.238922 0.232329,0.471997 z"
     id="path3384-6"
     style="fill:#784421;stroke-width:0.26421" />
  <path
     fill="#be1931"
     d="m 15.222249,27.67061 c 0.700926,-0.657719 1.1414,-1.414105 0.523731,-3.019773 -0.390807,-1.015995 0.175974,-2.595874 -0.222172,-3.628775 -0.382731,-0.992885 -2.097398,-2.142557 -4.454042,-0.757633 -2.4222403,1.423602 -3.07515,2.67826 -2.3854093,4.469599 0.4806338,1.247761 2.0639033,1.562567 3.2283673,2.565496 0.772903,0.665498 2.68082,1.646359 3.309525,0.371086 z"
     id="path3380-5"
     style="stroke-width:0.26421;fill:#ac9d93" />
  <path
     fill="#77b255"
     d="m 13.026401,19.366684 c -0.402147,-0.129487 -0.921936,-0.04627 -1.420732,0.140084 0.06051,-0.03828 0.119954,-0.07645 0.183511,-0.110377 0.22247,-0.11873 0.729034,-0.69352 0.222933,-0.423076 -0.221529,0.118297 -0.421431,0.26627 -0.625368,0.406622 0.04068,-0.06402 0.0827,-0.128068 0.130771,-0.190062 -0.0737,-0.173359 -1.013591,0.24889 -1.323347,0.889514 -0.131228,0.02569 -0.2976287,-0.07066 -1.0025645,0.246029 -0.4699589,0.21113 -1.0105464,0.729085 -0.6073869,0.569947 0.2194699,-0.08644 0.4699572,-0.211132 0.4721954,-0.103699 -0.1480097,0.08442 -0.8446073,0.568078 -0.7470549,0.821335 0.03444,0.08939 0.6316661,-0.335179 0.7049395,-0.316698 -0.3418105,0.344883 -0.5098382,0.823198 -0.4122874,1.076446 0.041262,0.107127 0.43906,-0.442334 0.6073887,-0.569946 -0.1374297,0.358816 -0.1630405,0.578571 -0.078583,0.756307 0.055271,0.116287 0.5523513,-0.274881 0.6019784,-0.320646 0.1668165,-0.155155 0.7490537,-0.710238 0.8151747,-1.175457 0.05529,0.05983 0.827061,0.02681 1.108776,-0.0626 0.129988,-0.04112 0.642374,-0.207192 0.43373,-0.406085 -0.06133,-0.05831 -0.393855,-0.205988 -0.560635,-0.42071 0.102972,-0.05181 2.046615,-0.629803 1.496571,-0.806909 z"
     id="path3382-5"
     style="stroke-width:0.26421;fill:#784421" />
  <path
     fill="#f4abba"
     d="m 10.391959,24.63025 c -0.174369,-0.355392 -0.9140832,-0.555431 -0.6452908,-0.0071 0.1743865,0.355384 0.9140828,0.555431 0.6452908,0.0071 z m 1.806422,-0.647258 c -0.07683,-0.150249 -0.182457,-0.271847 -0.32444,-0.350655 -0.163168,-0.09009 -0.287913,0.0218 -0.259135,0.210298 0.034,0.222086 0.190176,0.435036 0.373791,0.536734 l 0.01422,0.0079 c -0.101252,-0.110498 -0.202767,-0.220868 -0.304392,-0.33088 l 0.006,0.01123 c 0.07911,0.154584 0.26205,0.396211 0.452867,0.36277 0.194928,-0.03351 0.09772,-0.337407 0.04101,-0.4474 z m 0.879358,-1.833197 c 0.01867,-0.292102 -0.346545,-1.021322 -0.385883,-0.407123 -0.01879,0.291849 0.34631,1.021427 0.385883,0.407123 z m 1.552303,-1.130218 c -0.0419,-0.08723 -0.09323,-0.189828 -0.190398,-0.214507 -0.36309,-0.09178 -0.329365,0.848766 -0.02499,0.926216 0.0058,9.93e-4 0.01095,0.0025 0.01678,0.004 l -0.167419,-0.197794 a 0.1119456,0.12072409 0.54897592 0 0 0.0059,0.01281 c 0.06647,0.137701 0.22268,0.309032 0.347195,0.125645 0.117127,-0.17324 0.100692,-0.474213 0.01314,-0.656487 z m 0.519671,2.311576 c 0.08568,-0.504604 -0.464715,-0.816429 -0.568687,-0.202604 -0.08577,0.504348 0.464853,0.81607 0.568687,0.202604 z m -1.068349,1.339696 c -0.148394,-0.509064 -0.811028,-0.453193 -0.638184,0.139356 0.148392,0.509066 0.811027,0.453193 0.638184,-0.139356 z m -2.443587,0.73774 -0.01112,0.0061 0.389789,0.0373 c -0.0018,-3.78e-4 -0.0036,-0.0016 -0.0058,-0.0025 -0.09921,-0.03861 -0.423575,-0.131436 -0.477894,0.03883 -0.05491,0.172313 0.255639,0.307296 0.355052,0.346408 0.110999,0.04342 0.292491,0.09527 0.406996,0.03402 0.328597,-0.175249 -0.438101,-0.577054 -0.656929,-0.460327 z m 3.684303,0.09962 c 0.123712,-0.372258 -0.224721,-1.102198 -0.419295,-0.517481 -0.123711,0.372258 0.224956,1.102091 0.419295,0.517481 z m -4.510687,-2.121897 c 0.02136,-0.01103 0.04276,-0.02283 0.06397,-0.03428 0.160705,-0.08585 0.09407,-0.474213 0.05443,-0.604341 -0.04542,-0.149225 -0.152133,-0.364194 -0.321713,-0.273454 l -0.06414,0.03458 c -0.160396,0.08593 -0.09407,0.474212 -0.05443,0.604341 0.04542,0.149225 0.152406,0.36437 0.321949,0.273348 z m 3.331981,3.035562 c 0.167345,0.151787 0.217542,0.384419 0.112002,0.519768 -0.105544,0.135338 -0.326771,0.12273 -0.494253,-0.02868 -0.167345,-0.151786 -0.217542,-0.384421 -0.112001,-0.51977 0.105763,-0.135436 0.326768,-0.12273 0.494252,0.02869 z"
     id="path3384-1"
     style="fill:#784421;stroke-width:0.26421" />
</svg>
